<?xml version="1.0" encoding="UTF-8" standalone="no"?>
<!-- Created with Inkscape (http://www.inkscape.org/) -->

<svg
   xmlns:dc="http://purl.org/dc/elements/1.1/"
   xmlns:cc="http://creativecommons.org/ns#"
   xmlns:rdf="http://www.w3.org/1999/02/22-rdf-syntax-ns#"
   xmlns:svg="http://www.w3.org/2000/svg"
   xmlns="http://www.w3.org/2000/svg"
   xmlns:sodipodi="http://sodipodi.sourceforge.net/DTD/sodipodi-0.dtd"
   xmlns:inkscape="http://www.inkscape.org/namespaces/inkscape"
   id="svg1297"
   version="1.1"
   viewBox="0 0 297 210"
   height="210mm"
   width="297mm"
   inkscape:version="0.92.1 r15371"
   sodipodi:docname="MiniGerbilV6.svg">
  <sodipodi:namedview
     inkscape:window-maximized="1"
     inkscape:window-y="-9"
     inkscape:window-x="-9"
     inkscape:window-height="1051"
     inkscape:window-width="1920"
     showgrid="false"
     inkscape:current-layer="layer1"
     inkscape:document-units="mm"
     inkscape:cy="273.17185"
     inkscape:cx="556.33111"
     inkscape:zoom="3.959798"
     inkscape:pageshadow="2"
     inkscape:pageopacity="0.0"
     borderopacity="1.0"
     bordercolor="#666666"
     pagecolor="#ffffff"
     id="base" />
  <defs
     id="defs1291">
    <filter
       style="color-interpolation-filters:sRGB;"
       inkscape:label="Greyscale"
       id="filter28900">
      <feColorMatrix
         values="0.21 0.72 0.072 0 0 0.21 0.72 0.072 0 0 0.21 0.72 0.072 0 0 0 0 0 1 0 "
         id="feColorMatrix28898" />
    </filter>
    <filter
       inkscape:label="Sharpen"
       inkscape:menu="Image Effects"
       inkscape:menu-tooltip="Sharpen edges and boundaries within the object, force=0.15"
       style="color-interpolation-filters:sRGB;"
       id="filter28906">
      <feConvolveMatrix
         order="3 3"
         kernelMatrix="0 -0.15 0 -0.15 1.6 -0.15 0 -0.15 0"
         divisor="1"
         in="SourceGraphic"
         targetX="1"
         targetY="1"
         id="feConvolveMatrix28904" />
    </filter>
  </defs>
  <metadata
     id="metadata1294">
    <rdf:RDF>
      <cc:Work
         rdf:about="">
        <dc:format>image/svg+xml</dc:format>
        <dc:type
           rdf:resource="http://purl.org/dc/dcmitype/StillImage" />
        <dc:title></dc:title>
      </cc:Work>
    </rdf:RDF>
  </metadata>
  <g
     inkscape:groupmode="layer"
     id="layer2"
     inkscape:label="Layer 2"
     style="display:inline">
    <path
       style="display:inline;fill:#000000;stroke-width:0.0853101"
       d="m 167.51094,178.23277 c -0.32782,0.13783 -0.53403,0.43361 -0.53403,0.76594 0,0.14385 -0.0768,0.41216 -0.17063,0.59623 -0.0938,0.18406 -0.1706,0.43878 -0.1706,0.56604 0,0.12726 -0.0433,0.41876 -0.0961,0.64778 l -0.0961,0.41639 -0.47972,-0.0334 c -0.26387,-0.0184 -0.586,0.008 -0.71586,0.0578 -0.47082,0.18187 -0.4794,0.85687 -0.0164,1.2918 0.17373,0.1632 0.20209,0.25033 0.15799,0.48544 -0.0803,0.42806 0.16761,0.9991 0.53136,1.22392 0.16351,0.10106 0.28226,0.19882 0.26381,0.21723 -0.0185,0.0184 -0.33647,-0.0627 -0.7068,-0.1802 -0.37031,-0.11753 -0.80836,-0.23754 -0.97338,-0.26667 -0.16505,-0.0291 -0.41524,-0.15622 -0.556,-0.28242 -0.7055,-0.63253 -1.59664,-1.11291 -2.06715,-1.11434 -0.22146,-7.9e-4 -0.28591,0.0401 -0.32793,0.20756 -0.0364,0.14509 -0.1211,0.21634 -0.27887,0.2346 -0.24715,0.0286 -0.24521,0.0142 -0.13356,0.98661 0.0434,0.37792 0.10419,0.49877 0.38634,0.76779 0.4381,0.41768 0.81632,0.61785 1.16748,0.61785 0.30644,0 0.83497,0.31585 1.42927,0.85412 0.19042,0.17245 0.60055,0.45581 0.91141,0.62965 0.42312,0.23662 0.62119,0.41157 0.78777,0.69581 0.12237,0.20884 0.2563,0.37972 0.29763,0.37972 0.0413,0 0.12182,0.14396 0.17894,0.31991 0.0571,0.17595 0.27091,0.67211 0.47506,1.10256 0.29297,0.6177 0.51604,0.93565 1.05831,1.50853 0.3779,0.39923 0.89387,0.86311 1.1466,1.03086 0.40084,0.26606 0.47617,0.36206 0.59017,0.7522 0.28353,0.97008 1.08072,1.88388 2.10008,2.40726 0.28509,0.14637 0.42503,0.28857 0.53962,0.54828 0.26027,0.58991 0.86696,0.92101 1.59213,0.86888 0.16423,-0.0118 0.33406,-0.0557 0.3774,-0.0975 0.0433,-0.0418 0.075,-0.32662 0.0704,-0.63283 -0.005,-0.30623 0.0175,-0.55574 0.0492,-0.55447 0.0317,0.001 0.15161,0.15465 0.26646,0.34086 0.22913,0.37143 0.31655,0.41819 0.81775,0.43737 0.49739,0.019 0.69691,-0.0732 0.80045,-0.3702 0.12152,-0.34857 0.118,-1.10496 -0.007,-1.40716 -0.0587,-0.14238 -0.10314,-0.77852 -0.10925,-1.56246 -0.01,-1.27825 -0.0453,-1.5328 -0.39402,-2.83273 -0.0466,-0.17383 -0.17973,-0.42891 -0.2958,-0.56683 -0.24985,-0.29692 -0.26308,-0.4065 -0.0617,-0.51049 0.32324,-0.16688 0.77343,-0.18815 1.16549,-0.055 0.21717,0.0737 0.42738,0.11396 0.46715,0.0894 0.0397,-0.0246 0.0918,-0.21829 0.11575,-0.43047 0.0552,-0.48947 0.16891,-0.62272 0.63087,-0.73905 0.20461,-0.0515 0.37198,-0.13289 0.37198,-0.18083 0,-0.2501 -0.44053,-0.90654 -0.86796,-1.29335 -1.11993,-1.01348 -3.53627,-2.01163 -4.86974,-2.01163 -0.25223,0 -0.29816,-0.0368 -0.39907,-0.31992 -0.0627,-0.17595 -0.1809,-0.41588 -0.26265,-0.53318 -0.10838,-0.15555 -0.1582,-0.43674 -0.18402,-1.03887 l -0.0354,-0.82558 0.26921,-0.0505 c 0.56804,-0.10657 0.74105,-0.61466 0.43223,-1.26938 -0.4604,-0.97607 -1.52726,-1.60855 -2.05828,-1.22026 -0.13734,0.10044 -0.20854,0.0947 -0.50683,-0.0408 -0.19087,-0.0867 -0.43048,-0.15847 -0.53245,-0.1595 -0.10197,-0.001 -0.30454,-0.10212 -0.45016,-0.22464 -0.34457,-0.28993 -0.76026,-0.38276 -1.09112,-0.24364 z m 0.84281,0.29295 0.2014,0.16778 -0.21328,0.005 c -0.27324,0.006 -0.93843,0.30612 -0.93843,0.42334 0,0.0492 -0.0576,0.0895 -0.12795,0.0895 -0.20838,0 -0.14949,-0.38177 0.0969,-0.6282 0.27408,-0.27406 0.6917,-0.29838 0.98131,-0.0571 z m 1.39044,0.62641 c 0.35269,0.19712 0.3892,0.20302 0.3892,0.0629 0,-0.4944 1.12895,-0.0604 1.60919,0.61868 0.34251,0.48426 0.45138,1.06629 0.23334,1.24725 -0.22894,0.19001 -0.86339,0.0682 -1.24587,-0.23912 -0.35486,-0.28518 -0.46889,-0.32986 -0.40291,-0.15791 0.0236,0.0614 -0.17454,0.004 -0.46008,-0.13279 -0.2758,-0.13238 -0.50147,-0.27397 -0.50147,-0.31462 0,-0.0407 -0.0994,-0.19204 -0.22087,-0.3364 -0.29734,-0.35338 -0.63926,-0.35612 -0.88776,-0.007 -0.1,0.14044 -0.15565,0.29766 -0.12369,0.34938 0.0589,0.0954 -0.0946,0.4612 -0.27324,0.65098 -0.0749,0.0796 -0.10644,0.0193 -0.13417,-0.25593 -0.0198,-0.19797 0.003,-0.38648 0.0522,-0.41891 0.11954,-0.0797 -0.0306,-0.49203 -0.22312,-0.61288 -0.10673,-0.067 -0.22381,-0.0643 -0.42656,0.01 l -0.27943,0.10214 0.2014,-0.16792 c 0.24194,-0.20172 0.34261,-0.20845 0.58447,-0.039 0.23558,0.16501 0.38235,-0.014 0.15049,-0.1836 -0.18261,-0.13352 -0.17031,-0.15193 0.21924,-0.328 0.43061,-0.19463 1.24579,-0.12285 1.73966,0.15319 z m -1.33835,0.15104 c -0.26355,0.15353 -0.16023,0.22939 0.24951,0.1832 0.36229,-0.0408 0.41664,-0.0226 0.5934,0.19909 0.21093,0.26452 0.33706,0.24282 0.24654,-0.0424 -0.10721,-0.33776 -0.74922,-0.53806 -1.08945,-0.3399 z m -0.91709,0.54768 c 0.10453,0.12594 0.0935,1.59855 -0.0127,1.7048 -0.0948,0.0948 -0.8403,-0.24901 -0.8403,-0.38753 0,-0.23342 0.33396,-1.12518 0.48311,-1.28998 0.17068,-0.18858 0.23235,-0.19312 0.36996,-0.0273 z m -0.46451,0.44789 c 0.0361,0.0821 0.0732,0.28366 0.0826,0.44788 0.0109,0.19108 0.004,0.21412 -0.0193,0.064 -0.0452,-0.29297 -0.17536,-0.30391 -0.24646,-0.0207 -0.0744,0.2966 0.18156,0.69289 0.35473,0.54916 0.22241,-0.18458 0.10356,-1.18961 -0.14068,-1.18961 -0.0601,0 -0.0718,0.0564 -0.031,0.14929 z m 1.84992,-0.37243 c 0.32538,0.24705 0.48061,0.9384 0.35345,1.57418 l -0.0527,0.26334 -0.71511,-0.0104 c -0.77571,-0.0113 -0.78386,-0.018 -0.61315,-0.5035 0.0995,-0.28304 0.10319,-0.28488 0.15314,-0.0767 0.0667,0.27811 0.34579,0.28123 0.48332,0.005 0.0802,-0.16081 0.0807,-0.24774 0.003,-0.3839 -0.0946,-0.16464 -0.10285,-0.15811 -0.12785,0.10124 -0.0148,0.15249 -0.0627,0.27726 -0.10665,0.27726 -0.1528,0 -0.0786,-0.40467 0.13081,-0.71323 0.20756,-0.30587 0.18902,-0.41228 -0.0355,-0.20385 -0.0934,0.0866 -0.10213,0.0827 -0.0468,-0.0213 0.0957,-0.17965 0.31477,-0.42707 0.37534,-0.42384 0.0279,0.002 0.11752,0.0534 0.19915,0.11539 z m -2.41676,1.55467 c 0.0193,0.0178 -0.0287,0.10283 -0.10663,0.18892 -0.30414,0.33607 -0.10237,0.69549 0.51385,0.91526 0.4712,0.16804 0.61568,0.15017 0.72498,-0.0897 0.0729,-0.15997 0.0726,-0.26726 0,-0.42923 -0.0914,-0.20069 -0.0864,-0.20955 0.0707,-0.12543 0.093,0.0498 0.22249,0.19494 0.28771,0.32258 0.17296,0.33852 0.0474,0.58547 -0.35957,0.70742 -1.30233,0.39018 -3.25569,-0.98992 -2.11809,-1.49648 0.23606,-0.10511 0.87204,-0.10083 0.98824,0.007 z m 0.76962,0.53713 c 0.097,0.13628 0.17642,0.30704 0.17642,0.37946 0,0.11096 -0.0436,0.11691 -0.27725,0.0378 -0.15248,-0.0517 -0.38442,-0.16858 -0.51539,-0.25982 -0.18968,-0.13215 -0.21793,-0.19024 -0.13885,-0.28554 0.17484,-0.21067 0.56042,-0.14524 0.75507,0.12813 z m 2.96463,0.10947 c -0.0272,0.068 -0.0474,0.0478 -0.0515,-0.0515 -0.004,-0.0899 0.0164,-0.14033 0.0448,-0.11198 0.0283,0.0283 0.0314,0.10194 0.007,0.16351 z m 0.17063,0 c -0.0272,0.068 -0.0474,0.0478 -0.0515,-0.0515 -0.004,-0.0899 0.0164,-0.14033 0.0448,-0.11198 0.0284,0.0283 0.0314,0.10194 0.007,0.16351 z m 0.17145,0.13167 c -0.0217,0.083 -0.0408,0.0358 -0.0425,-0.10502 -0.003,-0.14075 0.0159,-0.20866 0.0393,-0.15091 0.0233,0.0578 0.0249,0.17293 0.003,0.25593 z m -0.8187,0.0683 c 0.76676,0.25536 1.25722,0.59003 1.68325,1.14856 0.2626,0.3443 0.28533,0.41972 0.25106,0.83285 -0.094,1.13352 -1.12696,1.58332 -2.90208,1.2637 -0.76552,-0.13784 -1.17512,-0.30464 -0.74803,-0.30464 0.28107,0 1.07982,-0.64253 1.33051,-1.07029 0.12497,-0.21323 0.20707,-0.40783 0.18243,-0.43244 -0.0246,-0.0246 -0.19669,0.0328 -0.38243,0.12752 -0.41777,0.21313 -1.36837,0.39558 -1.66854,0.32024 -0.24416,-0.0613 -0.34808,-0.20945 -0.43675,-0.62278 l -0.058,-0.27012 0.47673,-0.099 c 0.59074,-0.12264 0.77269,-0.34698 0.70297,-0.86676 l -0.047,-0.35069 0.46625,0.0481 c 0.25643,0.0265 0.77377,0.15052 1.14961,0.27569 z m 1.15911,-0.1147 c -0.0272,0.068 -0.0475,0.0478 -0.0515,-0.0515 -0.004,-0.0899 0.0164,-0.14032 0.0448,-0.11197 0.0284,0.0283 0.0314,0.10193 0.007,0.16351 z m -8.58929,0.70914 c 0.21058,0.12038 0.21087,0.12196 0.0214,0.12494 -0.10557,0.002 -0.19193,0.0414 -0.19193,0.0883 0,0.0469 0.0745,0.0853 0.16557,0.0853 0.0911,0 0.18931,0.0384 0.21831,0.0853 0.029,0.0469 -0.023,0.0853 -0.11581,0.0853 -0.0927,0 -0.18362,0.0452 -0.20203,0.10041 -0.0359,0.10784 -0.4073,-0.44014 -0.4073,-0.60102 0,-0.13186 0.2535,-0.11631 0.51186,0.0314 z m 4.15149,0.23318 c 0.35195,0.0899 0.35549,0.0947 0.38727,0.52597 0.0353,0.47891 -0.0359,0.58003 -0.35785,0.50857 -0.34446,-0.0764 -0.6318,-0.32498 -0.75748,-0.65518 -0.15062,-0.39576 -0.0769,-0.61043 0.18196,-0.52968 0.10501,0.0327 0.35076,0.1004 0.5461,0.15032 z m -2.87184,0.62873 c 0.18711,0.17586 0.44897,0.31412 0.70136,0.37033 0.48426,0.10784 1.34786,0.42702 1.8539,0.68517 0.26742,0.13643 0.3854,0.16052 0.4303,0.0879 0.0445,-0.072 0.0755,-0.0645 0.11057,0.0268 0.0767,0.19983 1.06404,0.64308 1.76654,0.79304 1.46669,0.31309 2.67771,0.12944 3.16778,-0.48038 0.29456,-0.36654 0.33602,-0.36511 0.92712,0.032 0.64588,0.43391 1.32342,1.18147 1.71609,1.89342 0.36595,0.66347 0.66881,1.46261 0.67133,1.77123 0,0.0852 0.0946,0.27736 0.20867,0.42693 0.3242,0.42502 0.40976,0.71989 0.30287,1.04372 -0.0506,0.15332 -0.14861,0.30048 -0.2178,0.32704 -0.10046,0.0385 -0.10822,0.0154 -0.0385,-0.11482 0.11237,-0.20994 0.112,-0.43024 0,-0.43024 -0.0484,0 -0.11168,0.0672 -0.14068,0.1493 -0.086,0.24375 -0.38674,0.53318 -0.55399,0.53318 -0.18356,0 -0.18576,-0.0114 -0.0566,-0.29493 0.14711,-0.32282 0.0409,-0.34388 -0.25283,-0.0501 -0.4535,0.45349 -0.70051,0.30022 -0.53094,-0.32946 0.0807,-0.29975 0.0696,-0.40762 -0.076,-0.73665 -0.0938,-0.21201 -0.14886,-0.4419 -0.1224,-0.51087 0.0309,-0.0804 -0.005,-0.1254 -0.0988,-0.1254 -0.42002,0 -2.28314,-1.54234 -2.56132,-2.12035 -0.16386,-0.34044 -0.17106,-0.34462 -0.30086,-0.17443 -0.10284,0.13486 -0.3542,0.21287 -1.10902,0.34423 -0.53682,0.0934 -1.13867,0.15301 -1.33745,0.13241 l -0.36139,-0.0375 -0.20352,0.43727 c -0.19601,0.42107 -0.43262,1.10542 -0.5052,1.46099 -0.0272,0.13338 -0.0739,0.0873 -0.21373,-0.21133 -0.13248,-0.28276 -0.15256,-0.39828 -0.0773,-0.44483 0.0685,-0.0424 -0.041,-0.20973 -0.33644,-0.51381 -0.24096,-0.24801 -0.48144,-0.53577 -0.53438,-0.63946 -0.0537,-0.10523 -0.43117,-0.36151 -0.85413,-0.57997 -0.58634,-0.30283 -0.81222,-0.47254 -0.99806,-0.74987 -0.13211,-0.19715 -0.25331,-0.37653 -0.26931,-0.39863 -0.0161,-0.0221 -0.0621,0.0132 -0.1025,0.0786 -0.0617,0.0998 -0.10817,0.096 -0.29094,-0.0238 -0.11967,-0.0784 -0.33599,-0.14255 -0.48072,-0.14255 -0.30307,0 -0.65712,-0.16422 -0.87641,-0.4065 -0.14589,-0.16122 -0.14589,-0.1867 2.1e-4,-0.62724 0.13193,-0.39778 0.19223,-0.47201 0.45088,-0.55512 0.2284,-0.0734 0.30496,-0.14898 0.32573,-0.32157 l 0.0272,-0.22564 0.27144,0.18566 c 0.1493,0.10212 0.40579,0.31195 0.57001,0.4663 z m -1.14604,0.31776 c -0.20341,0.14873 -0.20047,0.56519 0.005,0.71562 0.18759,0.13731 0.72887,0.1127 0.77748,-0.0353 0.0236,-0.0716 -0.0524,-0.0882 -0.25329,-0.0556 -0.31713,0.0515 -0.54895,-0.12574 -0.46177,-0.35295 0.072,-0.18771 0.36253,-0.15798 0.56343,0.0577 l 0.17393,0.18671 v -0.18452 c 0,-0.11805 -0.0907,-0.2314 -0.25169,-0.31467 -0.30729,-0.15891 -0.3568,-0.16041 -0.55312,-0.0168 z m -0.73766,-0.76143 c 0.0762,0.0919 0.0737,0.13036 -0.0109,0.16568 -0.0793,0.0331 -0.0634,0.0753 0.0566,0.15032 0.16558,0.10353 0.16558,0.10478 0,0.16537 -0.21579,0.079 -0.4654,-0.13607 -0.4654,-0.40097 0,-0.22897 0.25569,-0.27795 0.41966,-0.0804 z m -0.15748,0.98937 c 0.0435,0 0.0791,0.0431 0.0791,0.0958 0,0.0662 -0.0396,0.0629 -0.12798,-0.0105 -0.0704,-0.0584 -0.1235,-0.16868 -0.11805,-0.24505 0.008,-0.11714 0.0159,-0.11551 0.0489,0.0104 0.0214,0.0821 0.0746,0.14931 0.11808,0.14931 z m 7.32395,0.051 c -0.16729,0.17924 -0.7503,0.54622 -0.86775,0.54622 -0.0154,0 -0.0362,-0.10843 -0.0463,-0.24095 -0.0175,-0.22849 0.009,-0.24768 0.51504,-0.37124 0.29337,-0.0717 0.5497,-0.13599 0.56959,-0.14296 0.0198,-0.007 -0.0569,0.0871 -0.1706,0.20893 z m -1.81279,0.35427 0.0993,0.31991 -0.20598,-0.25592 c -0.2314,-0.28751 -0.25643,-0.38389 -0.0998,-0.38389 0.0589,0 0.1518,0.14396 0.20643,0.3199 z m 0.71022,0.064 c 0,0.2702 -0.035,0.3839 -0.11816,0.3839 -0.12949,0 -0.33462,-0.27485 -0.42982,-0.57585 -0.0552,-0.17453 -0.0331,-0.19194 0.24363,-0.19194 0.30382,0 0.30435,5.3e-4 0.30435,0.38389 z m 5.25275,-0.29233 c 1.35781,0.18887 3.00466,0.91409 3.85299,1.69672 0.31766,0.29307 0.87554,1.00385 0.87554,1.11552 0,0.0415 -0.15291,0.11666 -0.33978,0.16697 -0.37674,0.10145 -0.4816,0.24109 -0.56293,0.74969 -0.0542,0.33918 -0.0587,0.34286 -0.30927,0.2555 -0.25051,-0.0873 -1.08508,-0.0507 -1.36054,0.0597 -0.10927,0.0438 -0.15428,-0.007 -0.19905,-0.2267 -0.0318,-0.1558 -0.22442,-0.63048 -0.42801,-1.05484 -0.43053,-0.89739 -1.18153,-1.76334 -1.9943,-2.2996 -0.52313,-0.34517 -0.6581,-0.55451 -0.35745,-0.55451 0.0904,0 0.46069,0.0412 0.8228,0.0916 z m -2.36281,2.53172 c 0.0444,0.0821 0.28959,0.35545 0.54486,0.60744 l 0.46413,0.45812 -0.27771,0.41266 c -0.15274,0.22696 -0.38213,0.73102 -0.50977,1.1201 -0.12766,0.38911 -0.25818,0.73638 -0.29006,0.77175 -0.0319,0.0354 -0.13269,0.004 -0.22403,-0.0703 -0.0913,-0.074 -0.12292,-0.11331 -0.0702,-0.0873 0.0571,0.0282 0.16876,-0.15013 0.27639,-0.44155 0.16526,-0.44737 0.50858,-1.0837 0.81611,-1.51259 0.11318,-0.15788 0.0843,-0.21088 -0.38648,-0.70905 l -0.5088,-0.53841 -0.86219,0.17585 c -0.47422,0.0967 -1.04561,0.17585 -1.26976,0.17585 -0.34415,0 -0.43556,0.0365 -0.58741,0.23459 l -0.17986,0.23461 0.11478,-0.29859 0.11477,-0.29858 0.84709,-0.0647 c 0.46588,-0.0356 1.0582,-0.11767 1.31628,-0.18251 0.25807,-0.0648 0.49665,-0.12211 0.5302,-0.12729 0.0335,-0.005 0.0973,0.0577 0.14168,0.13985 z m -0.26845,0.32881 c -0.0283,0.0284 -0.10191,0.0314 -0.16351,0.007 -0.068,-0.0272 -0.0478,-0.0474 0.0515,-0.0515 0.0899,-0.004 0.14034,0.0165 0.11197,0.0448 z m -1.25483,0.3733 c -0.13767,0.13767 -0.21191,0.15715 -0.33928,0.089 -0.0897,-0.048 -0.29035,-0.0918 -0.44593,-0.0974 l -0.28286,-0.0101 0.2518,-0.054 c 0.13851,-0.0297 0.41846,-0.0652 0.62217,-0.0789 l 0.37033,-0.0249 z m 1.23097,-0.0547 c 0.14248,0.10419 0.14375,0.11902 0.0143,0.16868 -0.0857,0.0329 -0.20873,-0.0124 -0.31057,-0.11425 -0.15745,-0.15744 -0.1584,-0.16868 -0.0143,-0.16868 0.0849,0 0.22463,0.0514 0.31057,0.11425 z m 0.75681,0.53466 c -0.0597,0.15568 -0.16724,0.15141 -0.22881,-0.009 -0.027,-0.0704 -0.10824,-0.12796 -0.18047,-0.12796 -0.1093,0 -0.11377,-0.0282 -0.0266,-0.16784 0.10385,-0.16627 0.1066,-0.16619 0.29316,0.009 0.10358,0.0973 0.1678,0.23042 0.14269,0.29581 z m -1.22168,-0.32638 c 0,0.0366 -0.12478,0.12005 -0.27726,0.18536 -0.15251,0.0653 -0.30962,0.13569 -0.34917,0.15641 -0.0395,0.0207 0.0154,-0.0627 0.12202,-0.18536 0.18029,-0.20735 0.50441,-0.30785 0.50441,-0.15641 z m -1.76679,0.27476 c 0.0246,0.0939 0.01,0.14921 -0.0327,0.12293 -0.0426,-0.0263 -0.0773,-0.10314 -0.0773,-0.17075 0,-0.17656 0.058,-0.15138 0.11004,0.0478 z m 0.52139,0.0138 c 0.14687,0.2097 0.10798,0.33047 -0.10329,0.3206 -0.0888,-0.004 -0.10327,-0.0233 -0.0376,-0.0498 0.16716,-0.0675 0.12483,-0.19943 -0.064,-0.19943 -0.0948,0 -0.1706,-0.0569 -0.1706,-0.12796 0,-0.1894 0.22717,-0.15518 0.37549,0.0565 z m 1.80327,0.13539 c -0.003,0.17954 -0.0534,0.24561 -0.21664,0.28149 -0.27824,0.0612 -0.52673,-7.9e-4 -0.48895,-0.12174 0.0266,-0.0852 0.54562,-0.39388 0.66294,-0.39423 0.0254,-6e-5 0.0445,0.10544 0.0426,0.23448 z m 0.33787,0.0213 c 0.029,0.0469 0.0143,0.0853 -0.0326,0.0853 -0.0469,0 -0.10903,-0.0384 -0.13803,-0.0853 -0.029,-0.0469 -0.0143,-0.0853 0.0326,-0.0853 0.0469,0 0.10903,0.0384 0.13803,0.0853 z m -0.89228,0.48571 c 0.2757,0.0951 0.28009,0.10214 0.0666,0.10663 -0.27813,0.006 -0.49961,-0.19794 -0.4881,-0.44914 0.008,-0.16927 0.0138,-0.16683 0.0674,0.0274 0.0392,0.1418 0.15782,0.24739 0.35406,0.3151 z m 2.64539,-0.13604 c 0.58758,0.34908 0.58838,0.35007 0.46878,0.58135 -0.18624,0.36013 -1.34752,1.35259 -1.85258,1.58324 -0.65387,0.29862 -1.391,0.47158 -2.0097,0.47158 h -0.53816 l -0.53163,-0.53431 c -0.50707,-0.50967 -1.07418,-1.38287 -0.96745,-1.48962 0.15172,-0.1517 2.22092,0.64664 3.04255,1.17389 0.21675,0.13907 0.43567,0.25287 0.48649,0.25287 0.0508,0 0.11962,-0.12397 0.15291,-0.27551 0.13152,-0.59889 0.93088,-2.11316 1.11548,-2.11316 0.0246,0 0.30959,0.15735 0.63331,0.34967 z m -5.29802,0.27789 c -0.0821,0.0757 -0.0935,0.0626 -0.0507,-0.0587 0.0304,-0.0859 0.0597,-0.20111 0.0651,-0.25593 0.006,-0.0548 0.0282,-0.0284 0.0506,0.0587 0.0225,0.0871 -0.007,0.20225 -0.0651,0.25593 z m 0.66516,-0.1078 c 0.11888,0.0452 0.19696,0.10138 0.17349,0.12483 -0.0939,0.0939 -0.49255,-0.13566 -0.48612,-0.27991 0.004,-0.0982 0.0225,-0.11202 0.0516,-0.0393 0.0246,0.0617 0.14214,0.14914 0.26104,0.19434 z m 0.96028,-0.0506 c 0,0.0704 -0.0553,0.12797 -0.12292,0.12797 -0.16495,0 -0.24662,-0.14506 -0.11221,-0.19925 0.18624,-0.0751 0.23513,-0.0603 0.23513,0.0713 z m 0.34123,0.12797 c 0,0.24114 -0.0185,0.25519 -0.3199,0.24315 -0.25699,-0.0103 -0.27382,-0.0198 -0.0855,-0.0483 0.16171,-0.0245 0.25056,-0.0999 0.28649,-0.24315 0.0705,-0.28101 0.11893,-0.26135 0.11893,0.0483 z m 1.28958,0.43345 c -0.12951,0.28531 -0.26408,0.5212 -0.29903,0.5242 -0.15737,0.0135 -1.10596,-0.48653 -0.97322,-0.51304 0.0799,-0.016 0.16614,-0.0948 0.19164,-0.17512 0.0356,-0.11208 0.12184,-0.13889 0.3706,-0.11517 0.17833,0.017 0.45678,-0.0268 0.61878,-0.0974 0.16204,-0.0706 0.30181,-0.13144 0.31065,-0.13527 0.009,-0.004 -0.0899,0.22648 -0.21942,0.5118 z m 2.83448,0.11672 c 0.0292,0.076 0.006,0.10788 -0.0589,0.0828 -0.0585,-0.0225 -0.19835,0.0571 -0.31075,0.17672 -0.19105,0.20338 -0.19508,0.22683 -0.0617,0.36027 0.13343,0.13344 0.15753,0.12916 0.36981,-0.0658 l 0.22707,-0.20846 -0.0471,0.21327 c -0.17188,0.7789 -0.17193,0.77741 0.0183,0.82717 0.1638,0.0428 0.16922,0.0618 0.054,0.18919 -0.21548,0.23811 -0.39056,0.75006 -0.39056,1.14209 0,0.20483 -0.0222,0.39455 -0.0492,0.42159 -0.027,0.027 -0.25376,-0.0445 -0.50382,-0.15898 -0.53258,-0.24382 -1.64655,-0.45638 -2.43284,-0.46422 -0.4264,-0.004 -0.50932,-0.0237 -0.35885,-0.0841 0.16451,-0.066 0.18102,-0.10593 0.10363,-0.25051 -0.12774,-0.23872 0.11483,-0.23679 0.28226,0.002 0.11774,0.16809 0.13438,0.1693 0.47244,0.034 0.29848,-0.11942 0.33798,-0.16337 0.2667,-0.29659 -0.11239,-0.21 -0.10808,-0.22665 0.0711,-0.27349 0.1143,-0.0299 0.15333,0.007 0.14928,0.13934 -0.005,0.15337 0.0413,0.17841 0.31289,0.17022 0.17511,-0.005 0.37664,-0.058 0.44789,-0.11708 0.16949,-0.14068 0.16544,-0.39926 -0.008,-0.4962 -0.1211,-0.0678 -0.12192,-0.0827 -0.007,-0.12682 0.0726,-0.0279 0.15108,0.004 0.1773,0.0726 0.0712,0.18566 0.24109,0.14849 0.56745,-0.12417 0.29419,-0.24575 0.29472,-0.24749 0.13089,-0.42872 -0.16386,-0.1813 -0.16325,-0.18325 0.16661,-0.52105 0.18211,-0.18648 0.33837,-0.33906 0.34729,-0.33906 0.009,0 0.0376,0.0556 0.0637,0.12362 z m -4.03875,0.21762 c 0.0704,0.0455 0.0896,0.0827 0.0427,0.0827 -0.0469,0 -0.14291,-0.0372 -0.21328,-0.0827 -0.0704,-0.0455 -0.0896,-0.0827 -0.0426,-0.0827 0.0469,0 0.14287,0.0372 0.21325,0.0827 z m 0.85312,0.47267 c 0,0.0235 -0.15357,-0.0357 -0.34126,-0.13143 -0.18767,-0.0957 -0.34123,-0.19328 -0.34123,-0.21674 0,-0.0235 0.15356,0.0357 0.34123,0.13143 0.18769,0.0958 0.34126,0.19328 0.34126,0.21674 z m 2.47398,0.2 c 0,0.0415 -0.10556,0.14303 -0.2346,0.22558 l -0.23461,0.15008 0.20683,-0.22558 c 0.22362,-0.2439 0.26238,-0.26608 0.26238,-0.15008 z m 3.14341,0.88424 c 0.16846,0.98091 0.19728,1.67229 0.0972,2.33262 -0.0754,0.49737 -0.0755,0.66985 -2.6e-4,0.71634 0.24302,0.1502 0.26315,1.35023 0.0241,1.42958 -0.058,0.0192 -0.15052,-0.064 -0.20564,-0.18501 -0.0551,-0.12098 -0.13242,-0.21997 -0.17182,-0.21997 -0.10088,0 -0.0895,0.32013 0.0138,0.38389 0.0469,0.029 0.0843,0.0984 0.083,0.15433 0,0.0559 -0.11057,-0.029 -0.24291,-0.18855 -0.16362,-0.19728 -0.2608,-0.25752 -0.30364,-0.18821 -0.0347,0.0561 -0.0159,0.15872 0.0417,0.22812 0.0859,0.10354 0.0805,0.1169 -0.0302,0.0744 -0.29424,-0.1129 -0.75697,-1.20259 -0.56189,-1.32316 0.0707,-0.0437 -0.0214,-0.20494 -0.297,-0.5192 -0.78015,-0.88997 -1.00872,-1.76476 -0.65304,-2.49948 0.20881,-0.43137 0.47215,-0.63392 0.62521,-0.48087 0.1465,0.14652 0.75456,0.10884 1.08281,-0.0671 0.16422,-0.088 0.32303,-0.16474 0.3529,-0.17049 0.0299,-0.006 0.0955,0.22948 0.14589,0.52273 z m -4.1579,-0.10168 c -0.11221,0.0935 -0.2273,0.14663 -0.25577,0.11816 -0.0606,-0.0606 0.23723,-0.29506 0.36949,-0.29091 0.0497,0.002 -0.003,0.0793 -0.11372,0.17275 z m -2.39792,0.50689 c 0,0.0469 -0.0169,0.0853 -0.0376,0.0853 -0.0206,0 -0.0613,-0.0384 -0.0903,-0.0853 -0.029,-0.0469 -0.0122,-0.0853 0.0376,-0.0853 0.0497,0 0.0903,0.0384 0.0903,0.0853 z m 2.38676,0.77173 c 0.82838,0.19858 1.04378,0.35838 1.3204,0.9796 0.12782,0.28702 0.34359,0.55488 0.65196,0.80928 0.58581,0.4833 0.58542,0.48262 0.49191,0.79924 -0.0431,0.14621 -0.0537,0.50577 -0.0236,0.79902 0.0476,0.46086 0.0359,0.53319 -0.0858,0.53319 -0.0774,0 -0.25524,-0.11708 -0.3951,-0.26018 -0.30432,-0.3113 -0.50086,-0.25922 -0.28734,0.0761 l 0.14433,0.2267 -0.26072,-0.24392 c -0.1434,-0.13416 -0.30167,-0.21863 -0.35168,-0.18772 -0.10282,0.0635 -0.434,-0.43135 -0.43447,-0.64928 -1.6e-4,-0.0888 -0.0966,-0.16367 -0.25599,-0.19867 -0.3334,-0.0732 -1.15779,-0.68335 -1.563,-1.15677 -0.3303,-0.38588 -0.68527,-1.05598 -0.77687,-1.46657 l -0.0523,-0.23461 0.57748,5.3e-4 c 0.31761,2.6e-4 0.90289,0.0786 1.30067,0.17396 z m 2.25086,1.48108 c 0.18121,0.22064 0.31332,0.4173 0.29358,0.43703 -0.0864,0.0864 -0.90082,-0.88343 -0.98311,-1.17081 -0.13044,-0.45561 -0.0156,-0.48208 0.18677,-0.0431 0.0953,0.20665 0.32157,0.55623 0.50276,0.77688 z"
       id="path2103"
       inkscape:connector-curvature="0" />
    <g
       transform="matrix(-0.26458333,0,0,0.26458333,301.75453,-83.201124)"
       aria-label="Laser control PWR   Ribbon Y-axis X-axis"
       style="font-style:normal;font-weight:normal;font-size:13.33333302px;line-height:1.25;font-family:sans-serif;letter-spacing:0px;word-spacing:0px;display:inline;fill:#000000;fill-opacity:1;stroke:none"
       id="text2743">
      <path
         inkscape:connector-curvature="0"
         d="m 469.72719,948.82593 h -6.13281 v -9.69401 h 1.28906 v 8.54817 h 4.84375 z"
         id="path707" />
      <path
         inkscape:connector-curvature="0"
         d="m 476.56964,948.82593 h -1.21745 v -0.77474 q -0.16276,0.11068 -0.44271,0.3125 -0.27343,0.19531 -0.53385,0.3125 -0.30599,0.14974 -0.70312,0.24739 -0.39714,0.10417 -0.93099,0.10417 -0.98308,0 -1.66667,-0.65104 -0.68359,-0.65104 -0.68359,-1.66016 0,-0.82682 0.35156,-1.33463 0.35807,-0.51433 1.01562,-0.80729 0.66407,-0.29297 1.59506,-0.39714 0.93098,-0.10417 1.99869,-0.15625 v -0.1888 q 0,-0.41667 -0.14974,-0.69011 -0.14323,-0.27343 -0.41666,-0.42968 -0.26042,-0.14974 -0.625,-0.20183 -0.36459,-0.0521 -0.76172,-0.0521 -0.48177,0 -1.07422,0.13021 -0.59245,0.1237 -1.22396,0.36458 h -0.0651 v -1.24349 q 0.35807,-0.0977 1.03515,-0.21484 0.67709,-0.11719 1.33464,-0.11719 0.76823,0 1.33463,0.13021 0.57292,0.1237 0.98959,0.42969 0.41015,0.29948 0.625,0.77474 0.21484,0.47526 0.21484,1.17838 z m -1.21745,-1.79037 v -2.02474 q -0.55989,0.0326 -1.32161,0.0977 -0.75521,0.0651 -1.19792,0.1888 -0.52734,0.14974 -0.85286,0.46875 -0.32552,0.3125 -0.32552,0.86589 0,0.625 0.3776,0.94401 0.3776,0.3125 1.15234,0.3125 0.64454,0 1.17839,-0.2474 0.53385,-0.2539 0.98958,-0.60547 z"
         id="path709" />
      <path
         inkscape:connector-curvature="0"
         d="m 484.13474,946.72957 q 0,0.9961 -0.82682,1.63412 -0.82031,0.63802 -2.24609,0.63802 -0.80729,0 -1.48438,-0.1888 -0.67057,-0.19532 -1.1263,-0.42318 v -1.3737 h 0.0651 q 0.57942,0.4362 1.28906,0.69662 0.70963,0.2539 1.36067,0.2539 0.8073,0 1.26303,-0.26041 0.45572,-0.26042 0.45572,-0.82032 0,-0.42968 -0.24739,-0.65104 -0.2474,-0.22135 -0.95052,-0.3776 -0.26042,-0.0586 -0.6836,-0.13672 -0.41666,-0.0781 -0.76171,-0.16927 -0.95704,-0.25391 -1.36068,-0.74219 -0.39714,-0.49479 -0.39714,-1.21094 0,-0.44922 0.18229,-0.84635 0.18881,-0.39714 0.56641,-0.70964 0.36458,-0.30599 0.92448,-0.48177 0.56641,-0.18229 1.26302,-0.18229 0.65104,0 1.31511,0.16276 0.67057,0.15625 1.11328,0.38412 v 1.30859 h -0.0651 q -0.46875,-0.34505 -1.13932,-0.57943 -0.67057,-0.24088 -1.3151,-0.24088 -0.67058,0 -1.13282,0.26041 -0.46224,0.25391 -0.46224,0.76172 0,0.44922 0.27995,0.67709 0.27344,0.22786 0.88542,0.37109 0.33854,0.0781 0.75521,0.15625 0.42317,0.0781 0.70312,0.14323 0.85287,0.19531 1.31511,0.67057 0.46223,0.48177 0.46223,1.27604 z"
         id="path711" />
      <path
         inkscape:connector-curvature="0"
         d="m 491.9798,945.31681 h -5.35808 q 0,0.67058 0.20183,1.17188 0.20182,0.49479 0.55338,0.8138 0.33854,0.3125 0.80078,0.46875 0.46875,0.15625 1.02865,0.15625 0.74219,0 1.49088,-0.29297 0.75521,-0.29948 1.07422,-0.58594 h 0.0651 v 1.33464 q -0.61849,0.26042 -1.26302,0.4362 -0.64454,0.17578 -1.35417,0.17578 -1.8099,0 -2.82552,-0.97656 -1.01563,-0.98308 -1.01563,-2.78646 0,-1.78386 0.97006,-2.83203 0.97656,-1.04818 2.5651,-1.04818 1.47135,0 2.26562,0.85937 0.80079,0.85938 0.80079,2.44141 z m -1.19141,-0.9375 q -0.007,-0.96354 -0.48828,-1.49088 -0.47526,-0.52735 -1.45182,-0.52735 -0.98308,0 -1.56901,0.57943 -0.57943,0.57943 -0.65756,1.4388 z"
         id="path713" />
      <path
         inkscape:connector-curvature="0"
         d="m 498.37303,942.88843 h -0.0651 q -0.27344,-0.0651 -0.53385,-0.0911 -0.25391,-0.0326 -0.60547,-0.0326 -0.56641,0 -1.09375,0.25391 -0.52735,0.24739 -1.01563,0.64453 v 5.16276 h -1.22395 v -7.27214 h 1.22395 v 1.07422 q 0.72917,-0.58594 1.28256,-0.82682 0.55989,-0.2474 1.13932,-0.2474 0.31901,0 0.46224,0.0195 0.14323,0.013 0.42969,0.0586 z"
         id="path715" />
      <path
         inkscape:connector-curvature="0"
         d="m 509.60349,948.3702 q -0.61198,0.29297 -1.16536,0.45573 -0.54688,0.16276 -1.16537,0.16276 -0.78776,0 -1.44531,-0.22787 -0.65755,-0.23437 -1.1263,-0.70312 -0.47526,-0.46875 -0.73568,-1.1849 -0.26041,-0.71614 -0.26041,-1.67317 0,-1.78386 0.97656,-2.79948 0.98307,-1.01563 2.59114,-1.01563 0.625,0 1.22396,0.17578 0.60547,0.17578 1.10677,0.42969 v 1.36068 h -0.0651 q -0.5599,-0.4362 -1.15886,-0.67058 -0.59244,-0.23437 -1.15885,-0.23437 -1.04167,0 -1.64714,0.70312 -0.59895,0.69662 -0.59895,2.05079 0,1.3151 0.58593,2.02474 0.59245,0.70312 1.66016,0.70312 0.37109,0 0.75521,-0.0977 0.38411,-0.0977 0.6901,-0.2539 0.26693,-0.13672 0.5013,-0.28646 0.23438,-0.15625 0.3711,-0.26693 h 0.0651 z"
         id="path717" />
      <path
         inkscape:connector-curvature="0"
         d="m 517.37693,945.19312 q 0,1.77734 -0.91146,2.80598 -0.91146,1.02865 -2.4414,1.02865 -1.54297,0 -2.45443,-1.02865 -0.90495,-1.02864 -0.90495,-2.80598 0,-1.77735 0.90495,-2.80599 0.91146,-1.03516 2.45443,-1.03516 1.52994,0 2.4414,1.03516 0.91146,1.02864 0.91146,2.80599 z m -1.26302,0 q 0,-1.41277 -0.55339,-2.09636 -0.55338,-0.6901 -1.53645,-0.6901 -0.9961,0 -1.54948,0.6901 -0.54688,0.68359 -0.54688,2.09636 0,1.36718 0.55339,2.07682 0.55338,0.70312 1.54297,0.70312 0.97656,0 1.52994,-0.69661 0.5599,-0.70313 0.5599,-2.08333 z"
         id="path719" />
      <path
         inkscape:connector-curvature="0"
         d="m 525.3587,948.82593 h -1.22395 v -4.14063 q 0,-0.5013 -0.0586,-0.9375 -0.0586,-0.44271 -0.21484,-0.6901 -0.16276,-0.27344 -0.46875,-0.40365 -0.30599,-0.13672 -0.79427,-0.13672 -0.50131,0 -1.04818,0.2474 -0.54688,0.2474 -1.04818,0.63151 v 5.42969 h -1.22396 v -7.27214 h 1.22396 v 0.80729 q 0.57292,-0.47526 1.1849,-0.74218 0.61198,-0.26693 1.25651,-0.26693 1.17838,0 1.79687,0.70963 0.61849,0.70964 0.61849,2.04428 z"
         id="path721" />
      <path
         inkscape:connector-curvature="0"
         d="m 531.49152,948.76082 q -0.34506,0.0912 -0.75521,0.14974 -0.40365,0.0586 -0.72266,0.0586 -1.11328,0 -1.69271,-0.59896 -0.57942,-0.59896 -0.57942,-1.92057 v -3.86719 h -0.82683 v -1.02865 h 0.82683 v -2.08984 h 1.22395 v 2.08984 h 2.52605 v 1.02865 h -2.52605 v 3.3138 q 0,0.57292 0.0261,0.89844 0.026,0.31901 0.18229,0.59896 0.14323,0.26041 0.39062,0.38411 0.25391,0.11719 0.76823,0.11719 0.29948,0 0.625,-0.0846 0.32552,-0.0911 0.46875,-0.14974 h 0.0651 z"
         id="path723" />
      <path
         inkscape:connector-curvature="0"
         d="m 537.51365,942.88843 h -0.0651 q -0.27343,-0.0651 -0.53385,-0.0911 -0.25391,-0.0326 -0.60547,-0.0326 -0.5664,0 -1.09375,0.25391 -0.52734,0.24739 -1.01562,0.64453 v 5.16276 h -1.22396 v -7.27214 h 1.22396 v 1.07422 q 0.72916,-0.58594 1.28255,-0.82682 0.55989,-0.2474 1.13932,-0.2474 0.31901,0 0.46224,0.0195 0.14323,0.013 0.42969,0.0586 z"
         id="path725" />
      <path
         inkscape:connector-curvature="0"
         d="m 544.87693,945.19312 q 0,1.77734 -0.91146,2.80598 -0.91146,1.02865 -2.4414,1.02865 -1.54297,0 -2.45443,-1.02865 -0.90495,-1.02864 -0.90495,-2.80598 0,-1.77735 0.90495,-2.80599 0.91146,-1.03516 2.45443,-1.03516 1.52994,0 2.4414,1.03516 0.91146,1.02864 0.91146,2.80599 z m -1.26302,0 q 0,-1.41277 -0.55339,-2.09636 -0.55338,-0.6901 -1.53645,-0.6901 -0.9961,0 -1.54948,0.6901 -0.54688,0.68359 -0.54688,2.09636 0,1.36718 0.55339,2.07682 0.55338,0.70312 1.54297,0.70312 0.97656,0 1.52994,-0.69661 0.5599,-0.70313 0.5599,-2.08333 z"
         id="path727" />
      <path
         inkscape:connector-curvature="0"
         d="M 548.01495,948.82593 H 546.791 v -10.13021 h 1.22395 z"
         id="path729" />
      <path
         inkscape:connector-curvature="0"
         d="m 561.52407,942.0616 q 0,0.64454 -0.22787,1.19792 -0.22135,0.54688 -0.625,0.95052 -0.5013,0.5013 -1.18489,0.75521 -0.6836,0.2474 -1.72527,0.2474 h -1.28906 v 3.61328 h -1.28906 v -9.69401 h 2.63021 q 0.87239,0 1.47786,0.14974 0.60547,0.14323 1.07422,0.45573 0.55339,0.37109 0.85287,0.92448 0.30599,0.55338 0.30599,1.39973 z m -1.34115,0.0326 q 0,-0.50131 -0.17578,-0.8724 -0.17578,-0.37109 -0.53386,-0.60547 -0.3125,-0.20182 -0.71614,-0.28646 -0.39714,-0.0911 -1.00912,-0.0911 h -1.27604 v 3.8737 h 1.08724 q 0.78125,0 1.26953,-0.13672 0.48828,-0.14323 0.79427,-0.44922 0.30599,-0.3125 0.42969,-0.65755 0.13021,-0.34506 0.13021,-0.77474 z"
         id="path731" />
      <path
         inkscape:connector-curvature="0"
         d="m 574.51235,939.13192 -2.51953,9.69401 h -1.45183 l -2.03776,-8.04688 -1.99219,8.04688 h -1.41927 l -2.5651,-9.69401 h 1.32161 l 2.03776,8.05989 2.00521,-8.05989 h 1.3086 l 2.02474,8.13802 2.02474,-8.13802 z"
         id="path733" />
      <path
         inkscape:connector-curvature="0"
         d="m 584.42771,948.82593 h -1.67317 l -3.24219,-3.85417 h -1.81641 v 3.85417 h -1.28906 v -9.69401 h 2.71484 q 0.87891,0 1.46485,0.11719 0.58594,0.11067 1.05469,0.40364 0.52734,0.33203 0.82031,0.83984 0.29948,0.50131 0.29948,1.27605 0,1.04817 -0.52735,1.75781 -0.52734,0.70312 -1.45182,1.0612 z m -3.01432,-6.96615 q 0,-0.41666 -0.14974,-0.73567 -0.14323,-0.32553 -0.48177,-0.54688 -0.27995,-0.1888 -0.66406,-0.26042 -0.38412,-0.0781 -0.90495,-0.0781 h -1.51693 v 3.65885 h 1.30209 q 0.61198,0 1.0677,-0.10416 0.45573,-0.11068 0.77474,-0.40365 0.29297,-0.27344 0.42969,-0.625 0.14323,-0.35807 0.14323,-0.90495 z"
         id="path735" />
      <path
         inkscape:connector-curvature="0"
         d="m 607.76104,948.82593 h -1.67317 l -3.24219,-3.85417 h -1.81641 v 3.85417 h -1.28906 v -9.69401 h 2.71484 q 0.87891,0 1.46485,0.11719 0.58593,0.11067 1.05468,0.40364 0.52735,0.33203 0.82032,0.83984 0.29948,0.50131 0.29948,1.27605 0,1.04817 -0.52735,1.75781 -0.52734,0.70312 -1.45182,1.0612 z m -3.01432,-6.96615 q 0,-0.41666 -0.14974,-0.73567 -0.14323,-0.32553 -0.48177,-0.54688 -0.27995,-0.1888 -0.66406,-0.26042 -0.38412,-0.0781 -0.90495,-0.0781 h -1.51693 v 3.65885 h 1.30208 q 0.61198,0 1.06771,-0.10416 0.45573,-0.11068 0.77474,-0.40365 0.29297,-0.27344 0.42969,-0.625 0.14323,-0.35807 0.14323,-0.90495 z"
         id="path737" />
      <path
         inkscape:connector-curvature="0"
         d="m 610.22849,940.33634 h -1.38021 v -1.26953 h 1.38021 z m -0.0781,8.48959 h -1.22396 v -7.27214 h 1.22396 z"
         id="path739" />
      <path
         inkscape:connector-curvature="0"
         d="m 618.93292,945.13452 q 0,0.91146 -0.26042,1.64063 -0.25391,0.72916 -0.6901,1.22395 -0.46224,0.51433 -1.01563,0.77474 -0.55338,0.25391 -1.21745,0.25391 -0.61849,0 -1.08073,-0.14974 -0.46224,-0.14323 -0.91145,-0.39062 l -0.0781,0.33854 h -1.14583 v -10.13021 h 1.22396 v 3.61979 q 0.51432,-0.42318 1.09375,-0.6901 0.57942,-0.27344 1.30208,-0.27344 1.28906,0 2.03125,0.98958 0.7487,0.98959 0.7487,2.79297 z m -1.26302,0.0326 q 0,-1.30208 -0.42969,-1.97265 -0.42969,-0.67709 -1.38672,-0.67709 -0.53385,0 -1.08073,0.23438 -0.54687,0.22786 -1.01562,0.59245 v 4.16666 q 0.52083,0.23438 0.89192,0.32552 0.37761,0.0912 0.85287,0.0912 1.01562,0 1.58854,-0.66406 0.57943,-0.67058 0.57943,-2.09636 z"
         id="path741" />
      <path
         inkscape:connector-curvature="0"
         d="m 627.24021,945.13452 q 0,0.91146 -0.26041,1.64063 -0.25391,0.72916 -0.69011,1.22395 -0.46224,0.51433 -1.01562,0.77474 -0.55339,0.25391 -1.21745,0.25391 -0.61849,0 -1.08073,-0.14974 -0.46224,-0.14323 -0.91146,-0.39062 l -0.0781,0.33854 h -1.14584 v -10.13021 h 1.22396 v 3.61979 q 0.51433,-0.42318 1.09375,-0.6901 0.57943,-0.27344 1.30209,-0.27344 1.28906,0 2.03125,0.98958 0.74869,0.98959 0.74869,2.79297 z m -1.26302,0.0326 q 0,-1.30208 -0.42968,-1.97265 -0.42969,-0.67709 -1.38672,-0.67709 -0.53386,0 -1.08073,0.23438 -0.54688,0.22786 -1.01563,0.59245 v 4.16666 q 0.52084,0.23438 0.89193,0.32552 0.3776,0.0912 0.85286,0.0912 1.01563,0 1.58855,-0.66406 0.57942,-0.67058 0.57942,-2.09636 z"
         id="path743" />
      <path
         inkscape:connector-curvature="0"
         d="m 635.34567,945.19312 q 0,1.77734 -0.91146,2.80598 -0.91145,1.02865 -2.4414,1.02865 -1.54297,0 -2.45443,-1.02865 -0.90495,-1.02864 -0.90495,-2.80598 0,-1.77735 0.90495,-2.80599 0.91146,-1.03516 2.45443,-1.03516 1.52995,0 2.4414,1.03516 0.91146,1.02864 0.91146,2.80599 z m -1.26302,0 q 0,-1.41277 -0.55338,-2.09636 -0.55339,-0.6901 -1.53646,-0.6901 -0.9961,0 -1.54948,0.6901 -0.54688,0.68359 -0.54688,2.09636 0,1.36718 0.55339,2.07682 0.55338,0.70312 1.54297,0.70312 0.97656,0 1.52995,-0.69661 0.55989,-0.70313 0.55989,-2.08333 z"
         id="path745" />
      <path
         inkscape:connector-curvature="0"
         d="m 643.32745,948.82593 h -1.22395 v -4.14063 q 0,-0.5013 -0.0586,-0.9375 -0.0586,-0.44271 -0.21484,-0.6901 -0.16276,-0.27344 -0.46875,-0.40365 -0.30599,-0.13672 -0.79427,-0.13672 -0.50131,0 -1.04818,0.2474 -0.54688,0.2474 -1.04818,0.63151 v 5.42969 h -1.22396 v -7.27214 h 1.22396 v 0.80729 q 0.57292,-0.47526 1.1849,-0.74218 0.61198,-0.26693 1.25651,-0.26693 1.17838,0 1.79687,0.70963 0.61849,0.70964 0.61849,2.04428 z"
         id="path747" />
      <path
         inkscape:connector-curvature="0"
         d="m 657.33136,939.13192 -3.41146,5.44271 v 4.2513 h -1.28906 v -4.11459 l -3.42448,-5.57942 h 1.42578 l 2.64974,4.33593 2.67578,-4.33593 z"
         id="path749" />
      <path
         inkscape:connector-curvature="0"
         d="m 661.51755,945.17358 h -4.0625 v -1.17838 h 4.0625 z"
         id="path751" />
      <path
         inkscape:connector-curvature="0"
         d="m 669.25192,948.82593 h -1.21745 v -0.77474 q -0.16276,0.11068 -0.4427,0.3125 -0.27344,0.19531 -0.53386,0.3125 -0.30599,0.14974 -0.70312,0.24739 -0.39714,0.10417 -0.93099,0.10417 -0.98308,0 -1.66667,-0.65104 -0.68359,-0.65104 -0.68359,-1.66016 0,-0.82682 0.35156,-1.33463 0.35807,-0.51433 1.01562,-0.80729 0.66407,-0.29297 1.59506,-0.39714 0.93099,-0.10417 1.99869,-0.15625 v -0.1888 q 0,-0.41667 -0.14974,-0.69011 -0.14322,-0.27343 -0.41666,-0.42968 -0.26042,-0.14974 -0.625,-0.20183 -0.36458,-0.0521 -0.76172,-0.0521 -0.48177,0 -1.07422,0.13021 -0.59245,0.1237 -1.22396,0.36458 h -0.0651 v -1.24349 q 0.35807,-0.0977 1.03515,-0.21484 0.67709,-0.11719 1.33464,-0.11719 0.76823,0 1.33464,0.13021 0.57291,0.1237 0.98958,0.42969 0.41015,0.29948 0.625,0.77474 0.21484,0.47526 0.21484,1.17838 z m -1.21745,-1.79037 v -2.02474 q -0.55989,0.0326 -1.32161,0.0977 -0.75521,0.0651 -1.19792,0.1888 -0.52734,0.14974 -0.85286,0.46875 -0.32552,0.3125 -0.32552,0.86589 0,0.625 0.3776,0.94401 0.37761,0.3125 1.15235,0.3125 0.64453,0 1.17838,-0.2474 0.53386,-0.2539 0.98958,-0.60547 z"
         id="path753" />
      <path
         inkscape:connector-curvature="0"
         d="m 677.9173,948.82593 h -1.54297 l -2.0638,-2.79297 -2.07683,2.79297 h -1.42578 l 2.83854,-3.6263 -2.8125,-3.64584 h 1.54297 l 2.05078,2.7474 2.0573,-2.7474 h 1.43229 l -2.85808,3.58073 z"
         id="path755" />
      <path
         inkscape:connector-curvature="0"
         d="m 680.82745,940.33634 h -1.3802 v -1.26953 h 1.3802 z m -0.0781,8.48959 h -1.22396 v -7.27214 h 1.22396 z"
         id="path757" />
      <path
         inkscape:connector-curvature="0"
         d="m 688.32744,946.72957 q 0,0.9961 -0.82682,1.63412 -0.82031,0.63802 -2.24609,0.63802 -0.80729,0 -1.48438,-0.1888 -0.67057,-0.19532 -1.1263,-0.42318 v -1.3737 h 0.0651 q 0.57943,0.4362 1.28907,0.69662 0.70963,0.2539 1.36067,0.2539 0.8073,0 1.26302,-0.26041 0.45573,-0.26042 0.45573,-0.82032 0,-0.42968 -0.24739,-0.65104 -0.2474,-0.22135 -0.95052,-0.3776 -0.26042,-0.0586 -0.6836,-0.13672 -0.41666,-0.0781 -0.76172,-0.16927 -0.95703,-0.25391 -1.36067,-0.74219 -0.39714,-0.49479 -0.39714,-1.21094 0,-0.44922 0.18229,-0.84635 0.18881,-0.39714 0.56641,-0.70964 0.36458,-0.30599 0.92448,-0.48177 0.56641,-0.18229 1.26302,-0.18229 0.65104,0 1.3151,0.16276 0.67058,0.15625 1.11328,0.38412 v 1.30859 h -0.0651 q -0.46875,-0.34505 -1.13932,-0.57943 -0.67057,-0.24088 -1.31511,-0.24088 -0.67057,0 -1.13281,0.26041 -0.46224,0.25391 -0.46224,0.76172 0,0.44922 0.27995,0.67709 0.27344,0.22786 0.88542,0.37109 0.33854,0.0781 0.7552,0.15625 0.42318,0.0781 0.70313,0.14323 0.85286,0.19531 1.3151,0.67057 0.46224,0.48177 0.46224,1.27604 z"
         id="path759" />
      <path
         inkscape:connector-curvature="0"
         d="m 702.26625,939.13192 -3.34636,4.79166 3.33984,4.90235 h -1.49088 l -2.64323,-3.99089 -2.70833,3.99089 h -1.40625 l 3.3789,-4.84375 -3.30078,-4.85026 h 1.48438 l 2.61067,3.9388 2.66927,-3.9388 z"
         id="path761" />
      <path
         inkscape:connector-curvature="0"
         d="m 707.24672,945.17358 h -4.0625 v -1.17838 h 4.0625 z"
         id="path763" />
      <path
         inkscape:connector-curvature="0"
         d="m 714.98109,948.82593 h -1.21744 v -0.77474 q -0.16276,0.11068 -0.44271,0.3125 -0.27344,0.19531 -0.53386,0.3125 -0.30599,0.14974 -0.70312,0.24739 -0.39714,0.10417 -0.93099,0.10417 -0.98307,0 -1.66667,-0.65104 -0.68359,-0.65104 -0.68359,-1.66016 0,-0.82682 0.35156,-1.33463 0.35807,-0.51433 1.01563,-0.80729 0.66406,-0.29297 1.59505,-0.39714 0.93099,-0.10417 1.9987,-0.15625 v -0.1888 q 0,-0.41667 -0.14974,-0.69011 -0.14323,-0.27343 -0.41667,-0.42968 -0.26042,-0.14974 -0.625,-0.20183 -0.36458,-0.0521 -0.76172,-0.0521 -0.48177,0 -1.07422,0.13021 -0.59245,0.1237 -1.22396,0.36458 h -0.0651 v -1.24349 q 0.35807,-0.0977 1.03516,-0.21484 0.67708,-0.11719 1.33463,-0.11719 0.76823,0 1.33464,0.13021 0.57291,0.1237 0.98958,0.42969 0.41016,0.29948 0.625,0.77474 0.21484,0.47526 0.21484,1.17838 z m -1.21744,-1.79037 v -2.02474 q -0.5599,0.0326 -1.32162,0.0977 -0.75521,0.0651 -1.19791,0.1888 -0.52735,0.14974 -0.85287,0.46875 -0.32552,0.3125 -0.32552,0.86589 0,0.625 0.3776,0.94401 0.37761,0.3125 1.15235,0.3125 0.64453,0 1.17838,-0.2474 0.53386,-0.2539 0.98959,-0.60547 z"
         id="path765" />
      <path
         inkscape:connector-curvature="0"
         d="m 723.64645,948.82593 h -1.54297 l -2.0638,-2.79297 -2.07682,2.79297 h -1.42578 l 2.83854,-3.6263 -2.8125,-3.64584 h 1.54297 l 2.05078,2.7474 2.05729,-2.7474 h 1.43229 l -2.85807,3.58073 z"
         id="path767" />
      <path
         inkscape:connector-curvature="0"
         d="m 726.55661,940.33634 h -1.38021 v -1.26953 h 1.38021 z m -0.0781,8.48959 h -1.22396 v -7.27214 h 1.22396 z"
         id="path769" />
      <path
         inkscape:connector-curvature="0"
         d="m 734.0566,946.72957 q 0,0.9961 -0.82682,1.63412 -0.82032,0.63802 -2.2461,0.63802 -0.80729,0 -1.48437,-0.1888 -0.67057,-0.19532 -1.1263,-0.42318 v -1.3737 h 0.0651 q 0.57943,0.4362 1.28906,0.69662 0.70964,0.2539 1.36068,0.2539 0.80729,0 1.26302,-0.26041 0.45573,-0.26042 0.45573,-0.82032 0,-0.42968 -0.2474,-0.65104 -0.24739,-0.22135 -0.95052,-0.3776 -0.26041,-0.0586 -0.68359,-0.13672 -0.41667,-0.0781 -0.76172,-0.16927 -0.95703,-0.25391 -1.36068,-0.74219 -0.39713,-0.49479 -0.39713,-1.21094 0,-0.44922 0.18229,-0.84635 0.1888,-0.39714 0.56641,-0.70964 0.36458,-0.30599 0.92448,-0.48177 0.5664,-0.18229 1.26302,-0.18229 0.65104,0 1.3151,0.16276 0.67057,0.15625 1.11328,0.38412 v 1.30859 h -0.0651 q -0.46875,-0.34505 -1.13933,-0.57943 -0.67057,-0.24088 -1.3151,-0.24088 -0.67057,0 -1.13281,0.26041 -0.46224,0.25391 -0.46224,0.76172 0,0.44922 0.27995,0.67709 0.27343,0.22786 0.88541,0.37109 0.33854,0.0781 0.75521,0.15625 0.42318,0.0781 0.70313,0.14323 0.85286,0.19531 1.3151,0.67057 0.46224,0.48177 0.46224,1.27604 z"
         id="path771" />
    </g>
  </g>
  <g
     inkscape:label="Layer 1"
     inkscape:groupmode="layer"
     id="layer1"
     transform="translate(0,-87)"
     style="display:inline">
    <path
       inkscape:connector-curvature="0"
       style="display:inline;fill:none;stroke:#000000;stroke-width:0.16852525;stroke-miterlimit:4;stroke-dasharray:none;stroke-opacity:1"
       d="m 115.49435,225.63668 v 9.82234 h -3.11843 v -9.82234 z"
       id="rect1883-9" />
    <path
       inkscape:connector-curvature="0"
       style="display:inline;fill:none;stroke:#000000;stroke-width:0.16852525;stroke-miterlimit:4;stroke-dasharray:none;stroke-opacity:1"
       d="m 174.71969,225.62779 v 9.82233 h -3.11843 v -9.82233 z"
       id="rect1883-9-5" />
    <path
       inkscape:connector-curvature="0"
       style="display:inline;fill:none;stroke:#000000;stroke-width:0.15810724;stroke-miterlimit:4;stroke-dasharray:none;stroke-opacity:1"
       d="m 174.68147,208.13876 v 8.61668 h -3.12885 v -8.61668 z"
       id="rect1883-9-4" />
    <path
       inkscape:connector-curvature="0"
       style="display:inline;fill:none;stroke:#000000;stroke-width:0.15810724;stroke-miterlimit:4;stroke-dasharray:none;stroke-opacity:1"
       d="m 115.49223,208.18115 v 8.61667 h -3.12885 v -8.61667 z"
       id="rect1883-9-4-9" />
    <path
       sodipodi:nodetypes="ccccccccccccccccccsccccccccccccccccccccccccccccccccccccc"
       style="display:inline;fill:none;stroke:#000000;stroke-width:0.26458332px;stroke-linecap:butt;stroke-linejoin:miter;stroke-opacity:1"
       d="m 128.54511,240.37814 h 29.91445 l 0.36381,-0.1819 0.1819,-0.19844 0.11575,-0.24805 -0.0165,-8.73125 0.24804,-0.44648 0.41341,-0.21498 0.678,0.0165 0.31419,0.11576 0.23151,0.19844 0.11576,0.23151 0.0496,0.31419 -0.0165,8.58242 0.21497,0.29766 0.18191,0.14883 0.31419,0.14883 13.80794,-0.0165 c 0,0 0.64492,-0.1323 0.71107,-0.1323 0.0661,0 0.42995,-0.24804 0.42995,-0.24804 l 0.51263,-0.51263 0.28112,-0.71107 v -31.78307 l -0.23157,-0.76068 -0.59532,-0.57878 -0.69453,-0.28112 c -18.75716,-0.13957 -36.79518,0.0892 -56.85009,-0.0332 l -8.15483,0.0331 -0.7276,0.23151 -0.24805,0.24805 -0.26458,0.34726 -0.24805,0.41341 -0.11575,0.39688 v 31.32005 0.46302 l 0.24804,0.51263 0.23151,0.36381 0.39688,0.41341 0.33073,0.14882 0.69453,0.1323 0.94258,0.0165 12.81575,-0.0331 0.46302,-0.11576 0.23151,-0.23151 0.16537,-0.42995 -0.0165,-0.44648 -0.0165,-8.15248 0.16537,-0.3638 0.47956,-0.24804 h 0.69453 l 0.42995,0.19843 0.19843,0.42995 0.0331,8.74779 0.14882,0.34726 0.16537,0.14883 z"
       id="path2097"
       inkscape:connector-curvature="0" />
    <path
       style="display:inline;fill:none;stroke:#000000;stroke-width:0.26395148px;stroke-linecap:butt;stroke-linejoin:miter;stroke-opacity:1"
       d="m 107.4064,248.91703 71.95251,0.0496 0.26332,-0.16536 0.21395,-0.24805 -0.033,-14.58516 0.11521,-0.28112 0.2304,-0.16536 0.21394,-0.0992 0.033,-2.96003 1.92554,-0.0165 0.0493,2.97656 1.57993,0.0165 0.24686,0.1323 0.13167,0.21497 0.0658,0.42995 -0.0329,54.91759 -0.0987,0.23151 -0.14812,0.16536 -0.18103,0.11576 -0.19749,0.0164 -1.38244,0.0164 -0.033,2.92695 -1.95846,0.0496 0.033,-2.92695 -73.48307,-0.0496 0.0164,3.38997 -0.033,0.21498 -0.13166,0.21497 -0.18103,0.13229 h -5.72724 l -0.13167,-0.0827 -0.18104,-0.21497 -0.0165,-0.36381 0.0165,-18.25625 -0.18103,-0.42995 -0.19748,-0.26458 -0.70768,-0.77721 -0.0987,-0.41342 0.0494,-0.41341 0.14812,-0.31419 0.24686,-0.24805 0.27978,-0.16536 0.32915,-0.13229 0.90518,0.0164 0.36207,-0.0827 0.18103,-0.11576 0.18103,-0.3638 v -5.09323 l 0.70767,-0.0496 0.72414,-0.19844 0.57601,-0.26458 0.67476,-0.56224 0.46082,-0.62838 0.32915,-0.74415 0.16458,-0.52917 0.1152,-1.10795 -0.13167,-0.76067 -0.29623,-0.84336 -0.44436,-0.72761 -0.54309,-0.59531 -0.64185,-0.44648 -0.62538,-0.28112 -0.82288,-0.14883 -0.18103,-0.0165 v -5.67201 l -0.033,-0.33072 -0.18103,-0.23152 -0.26332,-0.11575 -0.29624,-0.0827 h -0.83934 l -0.37852,-0.0827 -0.3127,-0.23151 -0.26332,-0.26458 -0.14812,-0.39688 -0.0329,-0.31419 0.0329,-0.29766 0.19749,-0.34726 0.27978,-0.34727 0.37852,-0.24805 0.21395,-0.39687 0.0823,-0.38034 v -18.35545 l 0.0659,-0.24804 0.16456,-0.14883 0.21396,-0.0992 5.431,0.0165 0.23041,0.0661 0.13165,0.0827 0.11521,0.23151 0.0165,0.26458 0.0164,18.20664 0.0329,0.26459 0.0659,0.13229 0.18104,0.14883 z"
       id="path2099"
       inkscape:connector-curvature="0" />
    <path
       inkscape:connector-curvature="0"
       style="display:inline;fill:none;stroke:#000000;stroke-width:0.18566677;stroke-miterlimit:4;stroke-dasharray:none;stroke-opacity:1"
       d="m 31.2653,123.77004 h 11.98801 v 3.10129 H 31.2653 Z"
       id="rect1883-0" />
    <path
       inkscape:connector-curvature="0"
       style="display:inline;fill:none;stroke:#000000;stroke-width:0.18566677;stroke-miterlimit:4;stroke-dasharray:none;stroke-opacity:1"
       d="m 65.22347,123.82431 h 11.988 v 3.1013 h -11.988 z"
       id="rect1883-4-9" />
    <path
       inkscape:connector-curvature="0"
       style="display:inline;fill:none;stroke:#000000;stroke-width:0.16852525;stroke-miterlimit:4;stroke-dasharray:none;stroke-opacity:1"
       d="m 139.45743,137.68071 h -9.82234 v -3.11844 h 9.82234 z"
       id="rect1883-9-5-8-7" />
    <path
       inkscape:connector-curvature="0"
       style="display:inline;fill:none;stroke:#000000;stroke-width:0.16852525;stroke-miterlimit:4;stroke-dasharray:none;stroke-opacity:1"
       d="m 139.44617,196.85158 h -9.82234 v -3.11844 h 9.82234 z"
       id="rect1883-9-5-8-3-4" />
    <path
       inkscape:connector-curvature="0"
       style="display:inline;fill:none;stroke:#000000;stroke-width:0.156565;stroke-miterlimit:4;stroke-dasharray:none;stroke-opacity:1"
       d="m 120.66672,196.85756 h -8.44523 v -3.1304 h 8.44523 z"
       id="rect1883-9-5-8-0-1" />
    <path
       inkscape:connector-curvature="0"
       style="display:inline;fill:none;stroke:#000000;stroke-width:0.156565;stroke-miterlimit:4;stroke-dasharray:none;stroke-opacity:1"
       d="m 120.63365,137.59088 h -8.44523 v -3.13039 h 8.44523 z"
       id="rect1883-9-5-8-0-5-1" />
    <path
       inkscape:connector-curvature="0"
       style="display:inline;fill:none;stroke:#000000;stroke-width:0.20388019;stroke-miterlimit:4;stroke-dasharray:none;stroke-opacity:1"
       d="m 94.78713,98.84764 a 1.7754022,1.7286302 0 0 1 -1.7754,1.72863 1.7754022,1.7286302 0 0 1 -1.7754,-1.72863 1.7754022,1.7286302 0 0 1 1.7754,-1.72863 1.7754022,1.7286302 0 0 1 1.7754,1.72863 z"
       id="path2023-6" />
    <path
       inkscape:connector-curvature="0"
       style="display:inline;fill:none;stroke:#000000;stroke-width:0.2;stroke-miterlimit:4;stroke-dasharray:none;stroke-opacity:1"
       d="m 11.75146,158.9598 a 1.3797789,1.3797789 0 0 1 -1.37978,1.37978 1.3797789,1.3797789 0 0 1 -1.3797802,-1.37978 1.3797789,1.3797789 0 0 1 1.3797802,-1.37978 1.3797789,1.3797789 0 0 1 1.37978,1.37978 z"
       id="path2040-2" />
    <path
       inkscape:connector-curvature="0"
       style="display:inline;fill:none;stroke:#000000;stroke-width:0.2;stroke-miterlimit:4;stroke-dasharray:none;stroke-opacity:1"
       d="m 11.72807,187.39625 a 1.3797789,1.3797789 0 0 1 -1.37978,1.37978 1.3797789,1.3797789 0 0 1 -1.3797802,-1.37978 1.3797789,1.3797789 0 0 1 1.3797802,-1.37978 1.3797789,1.3797789 0 0 1 1.37978,1.37978 z"
       id="path2040-9-5" />
    <path
       inkscape:connector-curvature="0"
       style="display:inline;fill:none;stroke:#000000;stroke-width:0.2;stroke-miterlimit:4;stroke-dasharray:none;stroke-opacity:1"
       d="m 85.56855,187.44303 a 1.3797789,1.3797789 0 0 1 -1.37978,1.37978 1.3797789,1.3797789 0 0 1 -1.37977,-1.37978 1.3797789,1.3797789 0 0 1 1.37977,-1.37977 1.3797789,1.3797789 0 0 1 1.37978,1.37977 z"
       id="path2040-4-0" />
    <path
       inkscape:connector-curvature="0"
       style="display:inline;fill:none;stroke:#000000;stroke-width:0.2;stroke-miterlimit:4;stroke-dasharray:none;stroke-opacity:1"
       d="m 75.78119,147.92054 a 1.3797789,1.3797789 0 0 1 -1.37978,1.37978 1.3797789,1.3797789 0 0 1 -1.37977,-1.37978 1.3797789,1.3797789 0 0 1 1.37977,-1.37978 1.3797789,1.3797789 0 0 1 1.37978,1.37978 z"
       id="path2040-3-5" />
    <path
       sodipodi:nodetypes="ccccccccccccccccccccccccccccccccccccccccccccccccccccccccccccccccccccccccccccccccccccccccccccc"
       inkscape:connector-curvature="0"
       id="path2078-5"
       d="m 71.2867,134.78006 c 18.81849,0 19.14922,0.0661 19.14922,0.0661 l 0.23151,0.19844 0.23151,0.26458 0.0992,0.33073 0.0331,54.37189 -0.0992,0.39687 -0.19843,0.29766 -0.16537,0.13229 -0.3638,0.0992 -18.88464,0.0661 -0.0331,2.14974 -0.13229,0.3638 -0.19844,0.26459 -0.23151,0.19843 h -0.33073 l -10.21953,0.0662 -0.39687,-0.23151 -0.33073,-0.23151 -0.13229,-0.33073 v -0.3638 l -0.0661,-1.91823 -21.92735,-0.0331 v 1.98437 l -0.0331,0.42995 -0.19843,0.29765 -0.29766,0.26459 -0.29766,0.0992 H 26.04297 l -0.33073,-0.23151 -0.23151,-0.23151 -0.16536,-0.33073 v -2.21593 l -18.7192702,-0.0331 -0.46302,-0.0992 -0.36381,-0.33073 -0.13229,-0.33073 -0.0992,-0.52917 0.025,-3.06696 c 0.0709,-1.5709 0.0678,-1.91258 0.40936,-2.33497 l 0.42892,-0.33714 c 0.89867,-0.16403 -0.12824,0.003 0.77044,-0.161 l 0.72051,0.0118 0.57977,-2.7e-4 0.79,-0.01 2.1005502,-0.13364 0.79442,-0.43162 0.4961,-0.79745 0.0314,-1.23142 0.0648,-2.89984 -0.0337,-1.70081 -0.0668,-10.32245 -0.0324,-2.10005 -0.0331,-0.84908 c 0,0 0.0277,-0.8531 -0.46133,-1.17911 l -0.53018,-0.34017 c -0.25412,-0.0663 -0.45591,-0.21616 -0.98678,-0.23422 l -2.8135802,0.0449 -0.92839,0.0165 -0.57302,-0.20148 -0.38979,-0.57877 -0.0651,-0.63037 -0.0378,-0.90207 -0.0257,-1.82132 -0.16738,-21.48649 0.0992,-0.59531 0.23151,-0.33073 0.33073,-0.19844 0.29766,-0.0662 18.8184902,-0.0331 -0.0661,-2.18281 0.26458,-0.42995 0.29766,-0.33073 0.39687,-0.0331 10.15339,-0.0331 0.39687,0.0992 0.29766,0.33072 0.16536,0.29766 0.0331,0.56224 0.0331,1.78594 21.92735,-0.0661 v -2.08359 l 0.16536,-0.33073 0.29766,-0.33073 0.23151,-0.13229 0.26458,-0.13229 h 0.19844 10.08724 l 0.23151,0.0992 0.3638,0.26459 0.0992,0.19844 0.13229,0.39686 z"
       style="display:inline;fill:none;stroke:#000000;stroke-width:0.26458332px;stroke-linecap:butt;stroke-linejoin:miter;stroke-opacity:1" />
    <path
       style="display:inline;fill:none;stroke:#000000;stroke-width:0.26458332px;stroke-linecap:butt;stroke-linejoin:miter;stroke-opacity:1"
       d="m 12.42329,129.8108 83.72218,0.0468 0.3274,-0.23386 0.23386,-0.14032 0.23387,-0.3274 v -0.37418 l 0.0935,-1.91766 h 2.89987 v 1.40317 l 0.79513,-0.0468 1.02899,-0.37418 0.56126,-0.60804 0.65481,-0.98221 v -0.8419 -1.12253 h -5.33202 l -1.02899,0.0935 -6.68842,1.35639 -1.16931,0.23386 -5.05139,0.70158 -0.56127,-0.14031 -0.18709,-0.23386 -0.14032,-0.42095 v -0.28063 l 0.23387,-0.32741 0.28063,-0.0935 5.42557,-0.70158 1.12253,-0.23386 6.03361,-1.21608 0.88867,-0.14031 0.46773,-0.0935 h 5.70621 l 0.0468,-1.40317 -0.28063,-0.65481 -0.32742,-0.60804 -0.42095,-0.46772 -0.79512,-0.51449 -0.56127,-0.23386 -0.56126,-0.14032 -3.13374,-0.0468 0.0935,-10.38342 3.27405,0.0468 0.88867,-0.37418 0.65482,-0.3274 0.65481,-0.65481 0.23386,-0.65482 0.14032,-0.60803 0.0935,-0.70158 0.0468,-3.41437 -0.23384,-0.74836 -0.23386,-0.51449 -0.18709,-0.32741 -0.23386,-0.28063 -0.28064,-0.28063 -0.37418,-0.32741 -0.5145,-0.23386 -0.37417,-0.0468 h -0.28064 l -0.3274,0.28063 v 1.12253 h -2.99342 l -0.28063,-0.98221 -0.5145,-1.21608 -1.26284,-1.63702 -2.01121,-1.16931 -1.6838,-0.42095 h -0.6548 l -4.16273,-0.14031 -2.29184,0.42095 -2.99342,1.07576 -2.15151,0.79512 -1.77735,0.32741 H 19.1584 l -0.28063,0.0468 -0.23386,0.23386 -0.18709,0.37418 -0.0935,0.3274 0.0468,1.96443 H 8.5879598 l 0.0468,-1.12253 -0.42095,-0.28063 -0.79513,0.14032 -0.60803,0.37417 -0.46773,0.37418 -0.42095,0.74836 -0.28063,0.74835 -0.0468,0.65481 -0.0468,3.46114 0.18709,0.8419 0.37418,0.88867 0.70158,0.56127 0.88867,0.46772 0.60804,0.18709 3.1337302,0.0468 0.0798,0.18476 0.0331,10.12031 -0.13229,0.0992 -3.0427102,0.0331 -0.39687,0.0661 -0.99219,0.42995 -0.89297,0.76067 -0.52916,1.28985 v 1.45521 H 11.3555 l 1.02526,0.19843 6.35,1.28985 1.38906,0.19844 5.09323,0.7276 0.39687,0.23151 0.0661,0.26458 -0.0331,0.42995 -0.19843,0.39688 -0.52917,0.16536 -4.92786,-0.69453 -1.28985,-0.19844 -6.21771,-1.35599 -1.78593,-0.19843 -5.0932302,0.0331 -0.0331,1.42213 0.13229,0.49609 0.33073,0.82683 0.46302,0.46302 0.52916,0.42995 0.69454,0.29765 0.59531,0.0992 0.33073,0.0331 -0.0992,-1.55442 H 11.55385 l 0.0331,2.18281 0.16537,0.42995 0.23151,0.16536 0.19844,0.16536 z"
       id="path2080-9"
       inkscape:connector-curvature="0" />
    <path
       style="display:inline;fill:none;stroke:#000000;stroke-width:0.26458332px;stroke-linecap:butt;stroke-linejoin:miter;stroke-opacity:1"
       d="m 110.95399,199.79027 h 31.68385 l 0.79375,-0.19843 0.42601,-0.48395 0.32739,-0.5028 0.14031,-0.40925 0.0116,-64.94316 -0.1637,-0.47941 -0.38586,-0.58466 -0.63143,-0.42094 -0.56126,-0.16371 -31.66475,-0.0117 -0.38588,0.152 -0.6665,0.43264 -0.40925,0.60804 -0.16371,0.79512 v 64.22989 l 0.14032,0.74835 0.40926,0.6665 0.31571,0.23386 z"
       id="path2101-7"
       inkscape:connector-curvature="0" />
    <text
       xml:space="preserve"
       style="font-style:normal;font-weight:normal;font-size:4.23333311px;line-height:1.25;font-family:sans-serif;letter-spacing:0px;word-spacing:0px;fill:#000000;fill-opacity:1;stroke:none;stroke-width:0.26458332"
       x="122.46429"
       y="99.318451"
       id="text5915"><tspan
         sodipodi:role="line"
         id="tspan5913"
         x="122.46429"
         y="99.318451"
         style="stroke-width:0.26458332">Mini Gerbil Cases: 100 pieces</tspan></text>
    <rect
       style="opacity:0.61000001;fill:none;fill-opacity:1;stroke:#000000;stroke-width:0.28200001;stroke-miterlimit:4;stroke-dasharray:none;stroke-dashoffset:0;stroke-opacity:1"
       id="rect5917"
       width="26.080357"
       height="10.961308"
       x="120.19643"
       y="211.01041"
       ry="2.2678564" />
  </g>
  <defs
     id="defs5283">
    <marker
       id="DrawCurveMarker"
       orient="auto"
       refX="-8"
       refY="-2.41063"
       style="overflow:visible">
      <path
         d="m -6.55552,-2.41063 0,0 L -13.11104,0 c 1.0473,-1.42323 1.04126,-3.37047 0,-4.82126"
         style="fill:#000044; fill-rule:evenodd;stroke-width:0.62500000;stroke-linejoin:round;"
         id="path5917" />
    </marker>
  </defs>
  <defs
     id="defs5288">
    <marker
       id="DrawCurveMarker_r"
       orient="auto"
       refX="8"
       refY="-2.41063"
       style="overflow:visible">
      <path
         d="m 6.55552,-2.41063 0,0 L 13.11104,0 c -1.0473,-1.42323 -1.04126,-3.37047 0,-4.82126"
         style="fill:#000044; fill-rule:evenodd;stroke-width:0.62500000;stroke-linejoin:round;"
         id="path5285" />
    </marker>
  </defs>
  <path
     inkscape:connector-curvature="0"
     style="display:inline;fill:none;stroke:#000000;stroke-width:0.18566677;stroke-miterlimit:4;stroke-dasharray:none;stroke-opacity:1"
     d="m 29.020415,137.63294 h 11.988011 v 3.1013 H 29.020415 Z"
     id="rect1883-0-2" />
  <path
     inkscape:connector-curvature="0"
     style="display:inline;fill:none;stroke:#000000;stroke-width:0.18566677;stroke-miterlimit:4;stroke-dasharray:none;stroke-opacity:1"
     d="m 62.978584,137.68721 h 11.988001 v 3.1013 H 62.978584 Z"
     id="rect1883-4-9-6" />
  <path
     inkscape:connector-curvature="0"
     style="display:inline;fill:none;stroke:#000000;stroke-width:0.20388019;stroke-miterlimit:4;stroke-dasharray:none;stroke-opacity:1"
     d="m 92.542245,112.71054 a 1.7754022,1.7286302 0 0 1 -1.775399,1.72863 1.7754022,1.7286302 0 0 1 -1.775402,-1.72863 1.7754022,1.7286302 0 0 1 1.775402,-1.72863 1.7754022,1.7286302 0 0 1 1.775399,1.72863 z"
     id="path2023-6-8" />
  <path
     style="display:inline;fill:none;stroke:#000000;stroke-width:0.26458332px;stroke-linecap:butt;stroke-linejoin:miter;stroke-opacity:1"
     d="m 10.178402,143.6737 83.722182,0.0468 0.327401,-0.23386 0.23386,-0.14032 0.23387,-0.3274 v -0.37418 l 0.0935,-1.91766 h 2.899868 v 1.40317 l 0.795131,-0.0468 1.028991,-0.37418 0.561255,-0.60804 0.65482,-0.98221 v -0.8419 -1.12253 h -5.332026 l -1.028991,0.0935 -6.688418,1.35639 -1.16931,0.23386 -5.05139,0.70158 -0.561272,-0.14031 -0.187089,-0.23386 -0.140319,-0.42095 v -0.28063 l 0.23387,-0.32741 0.280628,-0.0935 5.425572,-0.70158 1.122529,-0.23386 6.033612,-1.21608 0.888669,-0.14031 0.46773,-0.0935 h 5.706215 l 0.0468,-1.40317 -0.28064,-0.65481 -0.32742,-0.60804 -0.420948,-0.46772 -0.795121,-0.51449 -0.561268,-0.23386 -0.561261,-0.14032 -3.133741,-0.0468 0.0935,-10.38342 3.27405,0.0468 0.888672,-0.37418 0.654819,-0.3274 0.654808,-0.65481 0.23386,-0.65482 0.14032,-0.60803 0.0935,-0.70158 0.0468,-3.41437 -0.23384,-0.74836 -0.23386,-0.51449 -0.18709,-0.32741 -0.233859,-0.28063 -0.280639,-0.28063 -0.374181,-0.32741 -0.514498,-0.23386 -0.374171,-0.0468 h -0.280641 l -0.327398,0.28063 v 1.12253 h -2.993418 l -0.28063,-0.98221 -0.514499,-1.21608 -1.26284,-1.63702 -2.011212,-1.16931 -1.683797,-0.42095 h -0.654802 l -4.162729,-0.14031 -2.29184,0.42095 -2.993421,1.07576 -2.15151,0.79512 -1.777349,0.32741 H 16.913515 l -0.28063,0.0468 -0.233861,0.23386 -0.187089,0.37418 -0.0935,0.3274 0.0468,1.96443 H 6.3430716 l 0.0468,-1.12253 -0.42095,-0.28063 -0.79513,0.14032 -0.6080301,0.37417 -0.46773,0.37418 -0.42095,0.74836 -0.28063,0.74835 -0.0468,0.65481 -0.0468,3.46114 0.18709,0.8419 0.37418,0.88867 0.70158,0.56127 0.8886701,0.46772 0.60804,0.18709 3.13373,0.0468 0.0798,0.18476 0.0331,10.12031 -0.132289,0.0992 -3.042711,0.0331 -0.39687,0.0661 -0.99219,0.42995 -0.8929701,0.76067 -0.52916,1.28985 v 1.45521 h 5.7877601 l 1.0252604,0.19844 6.350002,1.28984 1.389061,0.19844 5.093229,0.7276 0.39687,0.23151 0.0661,0.26458 -0.0331,0.42995 -0.19843,0.39689 -0.52917,0.16535 -4.92786,-0.69453 -1.289851,-0.19844 -6.217712,-1.35599 -1.7859304,-0.19843 -5.0932301,0.0331 -0.0331,1.42213 0.13229,0.49609 0.33073,0.82684 0.46302,0.46301 0.5291601,0.42995 0.69454,0.29766 0.59531,0.0992 0.33073,0.0331 -0.0992,-1.55443 h 3.00963 l 0.0331,2.18282 0.16537,0.42994 0.23151,0.16537 0.19844,0.16536 z"
     id="path2080-9-5"
     inkscape:connector-curvature="0" />
</svg>
